<?xml version="1.0" encoding="utf-8"?>
<!-- Generator: Adobe Illustrator 16.0.4, SVG Export Plug-In . SVG Version: 6.00 Build 0)  -->
<!DOCTYPE svg PUBLIC "-//W3C//DTD SVG 1.1//EN" "http://www.w3.org/Graphics/SVG/1.1/DTD/svg11.dtd">
<svg version="1.1" id="Layer_1" xmlns="http://www.w3.org/2000/svg" xmlns:xlink="http://www.w3.org/1999/xlink" x="0px" y="0px"
	 width="800px" height="500px" viewBox="0 0 800 500" enable-background="new 0 0 800 500" xml:space="preserve">
<line fill="none" stroke="#D3E6ED" stroke-width="10" stroke-miterlimit="10" x1="400" y1="112" x2="400" y2="355"/>
<line fill="none" stroke="#D3E6ED" stroke-width="5" stroke-miterlimit="10" x1="462.5" y1="197" x2="462.5" y2="313"/>
<g>
	<g>
		<path fill="#D3E6ED" d="M399.527,140.075c-14.132,0-25.629-11.497-25.629-25.629c0-14.132,11.497-25.629,25.629-25.629
			c14.132,0,25.629,11.497,25.629,25.629C425.156,128.578,413.659,140.075,399.527,140.075z"/>
		<path fill="#83AFBA" d="M399.527,90.817c13.029,0,23.629,10.6,23.629,23.629c0,13.029-10.6,23.629-23.629,23.629
			s-23.629-10.6-23.629-23.629C375.898,101.417,386.498,90.817,399.527,90.817 M399.527,86.817c-15.26,0-27.629,12.37-27.629,27.629
			s12.37,27.629,27.629,27.629c15.259,0,27.629-12.37,27.629-27.629S414.786,86.817,399.527,86.817L399.527,86.817z"/>
	</g>
	<path fill="#FFFFFF" d="M399.527,149.642c-19.407,0-35.196-15.789-35.196-35.196c0-19.407,15.789-35.196,35.196-35.196
		s35.195,15.789,35.195,35.196C434.723,133.853,418.935,149.642,399.527,149.642z M399.527,86.532
		c-15.392,0-27.914,12.522-27.914,27.914c0,15.392,12.522,27.914,27.914,27.914c15.392,0,27.914-12.522,27.914-27.914
		C427.441,99.054,414.919,86.532,399.527,86.532z"/>
</g>
<g>
	<g>
		<path fill="#D3E6ED" d="M399.527,407.359c-14.29,0-25.915-11.625-25.915-25.914c0-14.29,11.625-25.915,25.915-25.915
			c14.289,0,25.914,11.625,25.914,25.915C425.441,395.734,413.816,407.359,399.527,407.359z"/>
		<path fill="#83AFBA" d="M399.527,357.53c13.187,0,23.914,10.729,23.914,23.915s-10.728,23.914-23.914,23.914
			s-23.915-10.728-23.915-23.914S386.341,357.53,399.527,357.53 M399.527,353.53c-15.417,0-27.915,12.498-27.915,27.915
			c0,15.416,12.498,27.914,27.915,27.914c15.416,0,27.914-12.498,27.914-27.914C427.441,366.028,414.943,353.53,399.527,353.53
			L399.527,353.53z"/>
	</g>
	<path fill="#FFFFFF" d="M399.527,416.641c-19.407,0-35.196-15.788-35.196-35.195s15.789-35.196,35.196-35.196
		s35.195,15.789,35.195,35.196S418.935,416.641,399.527,416.641z M399.527,353.53c-15.392,0-27.914,12.522-27.914,27.915
		c0,15.392,12.522,27.914,27.914,27.914c15.392,0,27.914-12.522,27.914-27.914C427.441,366.053,414.919,353.53,399.527,353.53z"/>
</g>
<g>
	<g>
		<path fill="#D3E6ED" d="M462.636,196.186c-4.919,0-8.921-4.002-8.921-8.922s4.002-8.922,8.921-8.922
			c4.92,0,8.923,4.002,8.923,8.922S467.556,196.186,462.636,196.186z"/>
		<path fill="#83AFBA" d="M462.636,180.342c3.817,0,6.923,3.105,6.923,6.922s-3.105,6.922-6.923,6.922
			c-3.816,0-6.921-3.105-6.921-6.922S458.819,180.342,462.636,180.342 M462.636,176.342c-6.032,0-10.921,4.89-10.921,10.922
			s4.889,10.922,10.921,10.922s10.923-4.89,10.923-10.922S468.668,176.342,462.636,176.342L462.636,176.342z"/>
	</g>
	<path fill="#FFFFFF" d="M462.636,205.468c-10.037,0-18.203-8.167-18.203-18.204s8.166-18.204,18.203-18.204
		c10.038,0,18.204,8.167,18.204,18.204S472.674,205.468,462.636,205.468z M462.636,176.342c-6.022,0-10.922,4.899-10.922,10.922
		s4.899,10.922,10.922,10.922s10.923-4.899,10.923-10.922S468.658,176.342,462.636,176.342z"/>
</g>
<g>
	<g>
		<path fill="#D3E6ED" d="M462.636,249.602c-4.928,0-8.938-4.009-8.938-8.938s4.01-8.938,8.938-8.938
			c4.929,0,8.938,4.01,8.938,8.938S467.564,249.602,462.636,249.602z"/>
		<path fill="#83AFBA" d="M462.636,233.726c3.826,0,6.938,3.112,6.938,6.938c0,3.825-3.112,6.938-6.938,6.938
			c-3.825,0-6.938-3.112-6.938-6.938C455.698,236.838,458.811,233.726,462.636,233.726 M462.636,229.726
			c-6.041,0-10.938,4.897-10.938,10.938s4.896,10.938,10.938,10.938s10.938-4.896,10.938-10.938S468.677,229.726,462.636,229.726
			L462.636,229.726z"/>
	</g>
	<path fill="#FFFFFF" d="M462.636,258.867c-10.037,0-18.203-8.166-18.203-18.203c0-10.038,8.166-18.204,18.203-18.204
		c10.038,0,18.204,8.167,18.204,18.204C480.84,250.701,472.674,258.867,462.636,258.867z M462.636,229.742
		c-6.022,0-10.922,4.899-10.922,10.922c0,6.022,4.899,10.922,10.922,10.922s10.923-4.9,10.923-10.922
		C473.559,234.642,468.658,229.742,462.636,229.742z"/>
</g>
<g>
	<g>
		<path fill="#D3E6ED" d="M462.636,322.295c-4.859,0-8.812-3.953-8.812-8.812s3.953-8.813,8.812-8.813s8.813,3.954,8.813,8.813
			S467.495,322.295,462.636,322.295z"/>
		<path fill="#83AFBA" d="M462.636,306.669c3.757,0,6.813,3.057,6.813,6.813s-3.057,6.812-6.813,6.812s-6.812-3.056-6.812-6.812
			S458.879,306.669,462.636,306.669 M462.636,302.669c-5.972,0-10.812,4.842-10.812,10.813s4.841,10.812,10.812,10.812
			s10.813-4.841,10.813-10.812S468.607,302.669,462.636,302.669L462.636,302.669z"/>
	</g>
	<path fill="#FFFFFF" d="M462.636,331.686c-10.037,0-18.203-8.166-18.203-18.203c0-10.038,8.166-18.204,18.203-18.204
		c10.038,0,18.204,8.166,18.204,18.204C480.84,323.52,472.674,331.686,462.636,331.686z M462.636,302.56
		c-6.022,0-10.922,4.9-10.922,10.923s4.899,10.922,10.922,10.922s10.923-4.899,10.923-10.922S468.658,302.56,462.636,302.56z"/>
</g>
<line fill="none" stroke="#D3E6ED" stroke-width="5" stroke-miterlimit="10" x1="331.5" y1="168" x2="331.5" y2="323"/>
<g>
	<g>
		<path fill="#D3E6ED" d="M331.563,167.059c-4.919,0-8.922-4.002-8.922-8.922c0-4.919,4.002-8.921,8.922-8.921
			s8.922,4.002,8.922,8.921C340.485,163.057,336.482,167.059,331.563,167.059z"/>
		<path fill="#83AFBA" d="M331.563,151.215c3.817,0,6.922,3.105,6.922,6.921c0,3.817-3.105,6.922-6.922,6.922
			s-6.922-3.105-6.922-6.922C324.641,154.32,327.746,151.215,331.563,151.215 M331.563,147.215c-6.032,0-10.922,4.89-10.922,10.921
			c0,6.032,4.89,10.922,10.922,10.922c6.032,0,10.922-4.89,10.922-10.922C342.485,152.105,337.595,147.215,331.563,147.215
			L331.563,147.215z"/>
	</g>
	<path fill="#FFFFFF" d="M331.563,176.341c-10.038,0-18.204-8.167-18.204-18.205c0-10.038,8.167-18.204,18.204-18.204
		s18.204,8.166,18.204,18.204C349.767,168.175,341.601,176.341,331.563,176.341z M331.563,147.215
		c-6.022,0-10.922,4.899-10.922,10.921c0,6.023,4.899,10.922,10.922,10.922s10.922-4.899,10.922-10.922
		C342.485,152.115,337.585,147.215,331.563,147.215z"/>
</g>
<g>
	<g>
		<path fill="#D3E6ED" d="M331.563,220.558c-4.974,0-9.021-4.046-9.021-9.021s4.046-9.021,9.021-9.021s9.021,4.046,9.021,9.021
			S336.537,220.558,331.563,220.558z"/>
		<path fill="#83AFBA" d="M331.563,204.517c3.871,0,7.021,3.149,7.021,7.021s-3.149,7.021-7.021,7.021s-7.021-3.149-7.021-7.021
			S327.692,204.517,331.563,204.517 M331.563,200.517c-6.086,0-11.021,4.934-11.021,11.021s4.934,11.021,11.021,11.021
			s11.021-4.934,11.021-11.021S337.649,200.517,331.563,200.517L331.563,200.517z"/>
	</g>
	<path fill="#FFFFFF" d="M331.563,229.741c-10.038,0-18.204-8.167-18.204-18.204s8.167-18.204,18.204-18.204
		s18.204,8.167,18.204,18.204S341.601,229.741,331.563,229.741z M331.563,200.615c-6.022,0-10.922,4.899-10.922,10.922
		s4.899,10.922,10.922,10.922s10.922-4.899,10.922-10.922S337.585,200.615,331.563,200.615z"/>
</g>
<g>
	<g>
		<path fill="#D3E6ED" d="M331.563,337.109c-4.998,0-9.063-4.065-9.063-9.063c0-4.997,4.065-9.062,9.063-9.062
			s9.063,4.065,9.063,9.062C340.626,333.044,336.561,337.109,331.563,337.109z"/>
		<path fill="#83AFBA" d="M331.563,320.983c3.895,0,7.063,3.168,7.063,7.062s-3.168,7.063-7.063,7.063s-7.063-3.169-7.063-7.063
			S327.668,320.983,331.563,320.983 M331.563,316.983c-6.11,0-11.063,4.953-11.063,11.062c0,6.11,4.953,11.063,11.063,11.063
			s11.063-4.953,11.063-11.063C342.626,321.937,337.673,316.983,331.563,316.983L331.563,316.983z"/>
	</g>
	<path fill="#FFFFFF" d="M331.563,346.25c-10.038,0-18.204-8.166-18.204-18.204c0-10.037,8.167-18.203,18.204-18.203
		s18.204,8.166,18.204,18.203C349.767,338.084,341.601,346.25,331.563,346.25z M331.563,317.124
		c-6.022,0-10.922,4.899-10.922,10.922s4.899,10.923,10.922,10.923s10.922-4.9,10.922-10.923S337.585,317.124,331.563,317.124z"/>
</g>
</svg>
