<?xml version="1.0" encoding="utf-8"?>
<!-- Generator: Adobe Illustrator 16.0.4, SVG Export Plug-In . SVG Version: 6.00 Build 0)  -->
<!DOCTYPE svg PUBLIC "-//W3C//DTD SVG 1.1//EN" "http://www.w3.org/Graphics/SVG/1.1/DTD/svg11.dtd">
<svg version="1.1" id="Layer_1" xmlns="http://www.w3.org/2000/svg" xmlns:xlink="http://www.w3.org/1999/xlink" x="0px" y="0px"
	 width="800px" height="500px" viewBox="0 0 800 500" enable-background="new 0 0 800 500" xml:space="preserve">
<line fill="none" stroke="#D3E6ED" stroke-width="10" stroke-miterlimit="10" x1="400" y1="112" x2="400" y2="355"/>
<line fill="none" stroke="#D3E6ED" stroke-width="5" stroke-miterlimit="10" x1="462.5" y1="197" x2="462.5" y2="313"/>
<g>
	<g>
		<g>
			<path fill="#D3E6ED" d="M399.527,140.86c-14.564,0-26.414-11.849-26.414-26.414c0-14.564,11.849-26.414,26.414-26.414
				s26.413,11.849,26.413,26.414C425.94,129.011,414.092,140.86,399.527,140.86z"/>
			<path fill="#83AFBA" d="M399.527,89.532c13.737,0,24.913,11.176,24.913,24.914c0,13.738-11.176,24.914-24.913,24.914
				s-24.914-11.176-24.914-24.914C374.614,100.708,385.79,89.532,399.527,89.532 M399.527,86.532
				c-15.393,0-27.914,12.522-27.914,27.914c0,15.392,12.521,27.914,27.914,27.914c15.392,0,27.913-12.522,27.913-27.914
				C427.44,99.054,414.919,86.532,399.527,86.532L399.527,86.532z"/>
		</g>
	</g>
	<path fill="#FFFFFF" d="M399.527,149.642c-19.407,0-35.196-15.789-35.196-35.196c0-19.407,15.789-35.196,35.196-35.196
		c19.406,0,35.194,15.789,35.194,35.196C434.723,133.853,418.935,149.642,399.527,149.642z M399.527,86.532
		c-15.393,0-27.914,12.522-27.914,27.914c0,15.392,12.521,27.914,27.914,27.914c15.392,0,27.914-12.522,27.914-27.914
		C427.441,99.054,414.919,86.532,399.527,86.532z"/>
</g>
<g>
	<g>
		<g>
			<g>
				<path fill="#D3E6ED" d="M399.526,407.857c-14.564,0-26.414-11.85-26.414-26.414s11.849-26.413,26.414-26.413
					s26.413,11.849,26.413,26.413S414.091,407.857,399.526,407.857z"/>
				<path fill="#83AFBA" d="M399.526,356.53c13.737,0,24.913,11.176,24.913,24.913s-11.176,24.914-24.913,24.914
					s-24.914-11.177-24.914-24.914S385.789,356.53,399.526,356.53 M399.526,353.53c-15.393,0-27.914,12.522-27.914,27.913
					c0,15.393,12.521,27.914,27.914,27.914c15.392,0,27.913-12.521,27.913-27.914C427.439,366.053,414.918,353.53,399.526,353.53
					L399.526,353.53z"/>
			</g>
		</g>
	</g>
	<path fill="#FFFFFF" d="M399.527,416.641c-19.407,0-35.196-15.788-35.196-35.195c0-19.406,15.789-35.195,35.196-35.195
		c19.406,0,35.194,15.789,35.194,35.195C434.722,400.853,418.935,416.641,399.527,416.641z M399.527,353.529
		c-15.393,0-27.914,12.522-27.914,27.916c0,15.392,12.521,27.914,27.914,27.914c15.392,0,27.914-12.522,27.914-27.914
		C427.441,366.053,414.919,353.529,399.527,353.529z"/>
</g>
<g>
	<path fill="#FFFFFF" d="M462.636,205.468c-10.037,0-18.203-8.167-18.203-18.204c0-10.037,8.166-18.204,18.203-18.204
		c10.038,0,18.204,8.167,18.204,18.204C480.84,197.301,472.674,205.468,462.636,205.468z M462.636,176.342
		c-6.021,0-10.922,4.899-10.922,10.922s4.899,10.922,10.922,10.922c6.023,0,10.923-4.899,10.923-10.922
		S468.658,176.342,462.636,176.342z"/>
	<g>
		<g>
			<g>
				<g>
					<g>
						<path fill="#D3E6ED" d="M462.637,196.686c-5.194,0-9.42-4.228-9.42-9.424c0-5.194,4.226-9.42,9.42-9.42
							s9.421,4.226,9.421,9.42C472.058,192.458,467.831,196.686,462.637,196.686z"/>
						<path fill="#83AFBA" d="M462.637,179.342c4.367,0,7.921,3.553,7.921,7.92c0,4.37-3.554,7.924-7.921,7.924
							s-7.92-3.555-7.92-7.924C454.717,182.895,458.27,179.342,462.637,179.342 M462.637,176.342c-6.021,0-10.92,4.899-10.92,10.92
							c0,6.023,4.898,10.924,10.92,10.924c6.022,0,10.921-4.901,10.921-10.924C473.558,181.241,468.659,176.342,462.637,176.342
							L462.637,176.342z"/>
					</g>
				</g>
			</g>
		</g>
	</g>
</g>
<g>
	<path fill="#FFFFFF" d="M462.636,258.867c-10.037,0-18.203-8.166-18.203-18.203c0-10.038,8.166-18.204,18.203-18.204
		c10.038,0,18.204,8.167,18.204,18.204S472.674,258.867,462.636,258.867z M462.636,229.742c-6.021,0-10.922,4.899-10.922,10.922
		c0,6.022,4.899,10.922,10.922,10.922c6.023,0,10.923-4.9,10.923-10.922S468.658,229.742,462.636,229.742z"/>
	<g>
		<g>
			<g>
				<g>
					<g>
						<path fill="#D3E6ED" d="M462.5,250.085c-5.194,0-9.42-4.228-9.42-9.424c0-5.194,4.226-9.42,9.42-9.42s9.421,4.226,9.421,9.42
							C471.921,245.858,467.694,250.085,462.5,250.085z"/>
						<path fill="#83AFBA" d="M462.5,232.742c4.367,0,7.921,3.553,7.921,7.92c0,4.369-3.554,7.924-7.921,7.924
							s-7.92-3.555-7.92-7.924C454.58,236.294,458.133,232.742,462.5,232.742 M462.5,229.742c-6.021,0-10.92,4.899-10.92,10.92
							c0,6.023,4.898,10.924,10.92,10.924c6.022,0,10.921-4.901,10.921-10.924C473.421,234.641,468.522,229.742,462.5,229.742
							L462.5,229.742z"/>
					</g>
				</g>
			</g>
		</g>
	</g>
</g>
<g>
	<path fill="#FFFFFF" d="M462.636,331.686c-10.037,0-18.203-8.166-18.203-18.203s8.166-18.203,18.203-18.203
		c10.038,0,18.204,8.166,18.204,18.203S472.674,331.686,462.636,331.686z M462.636,302.561c-6.021,0-10.922,4.899-10.922,10.922
		c0,6.023,4.899,10.922,10.922,10.922c6.023,0,10.923-4.898,10.923-10.922C473.559,307.46,468.658,302.561,462.636,302.561z"/>
	<g>
		<g>
			<g>
				<g>
					<g>
						<path fill="#D3E6ED" d="M462.636,322.903c-5.194,0-9.42-4.228-9.42-9.424c0-5.194,4.226-9.42,9.42-9.42
							s9.421,4.226,9.421,9.42C472.057,318.676,467.83,322.903,462.636,322.903z"/>
						<path fill="#83AFBA" d="M462.636,305.56c4.367,0,7.921,3.553,7.921,7.92c0,4.369-3.554,7.924-7.921,7.924
							s-7.92-3.555-7.92-7.924C454.716,309.112,458.269,305.56,462.636,305.56 M462.636,302.56c-6.021,0-10.92,4.899-10.92,10.92
							c0,6.023,4.898,10.924,10.92,10.924c6.022,0,10.921-4.9,10.921-10.924C473.557,307.459,468.658,302.56,462.636,302.56
							L462.636,302.56z"/>
					</g>
				</g>
			</g>
		</g>
	</g>
</g>
<line fill="none" stroke="#D3E6ED" stroke-width="5" stroke-miterlimit="10" x1="331.5" y1="168" x2="331.5" y2="323"/>
<g>
	<g>
		<g>
			<g>
				<g>
					<g>
						<path fill="#D3E6ED" d="M331.563,167.558c-5.195,0-9.421-4.227-9.421-9.423c0-5.194,4.226-9.42,9.421-9.42
							c5.194,0,9.42,4.226,9.42,9.42C340.984,163.331,336.758,167.558,331.563,167.558z"/>
						<path fill="#83AFBA" d="M331.563,150.215c4.367,0,7.92,3.553,7.92,7.92c0,4.369-3.553,7.923-7.92,7.923
							c-4.368,0-7.921-3.554-7.921-7.923C323.643,153.768,327.196,150.215,331.563,150.215 M331.563,147.215
							c-6.022,0-10.921,4.899-10.921,10.92c0,6.022,4.898,10.923,10.921,10.923c6.022,0,10.92-4.9,10.92-10.923
							C342.484,152.114,337.585,147.215,331.563,147.215L331.563,147.215z"/>
					</g>
				</g>
			</g>
		</g>
	</g>
	<path fill="#FFFFFF" d="M331.562,176.341c-10.037,0-18.203-8.167-18.203-18.205c0-10.038,8.167-18.204,18.203-18.204
		c10.037,0,18.204,8.166,18.204,18.204C349.767,168.175,341.601,176.341,331.562,176.341z M331.562,147.215
		c-6.021,0-10.922,4.899-10.922,10.921c0,6.023,4.899,10.922,10.922,10.922c6.023,0,10.923-4.899,10.923-10.922
		C342.485,152.115,337.585,147.215,331.562,147.215z"/>
</g>
<g>
	<g>
		<path fill="#D3E6ED" d="M331.562,220.558c-4.974,0-9.021-4.046-9.021-9.021s4.046-9.021,9.021-9.021
			c4.976,0,9.021,4.046,9.021,9.021S336.537,220.558,331.562,220.558z"/>
	</g>
	<path fill="#FFFFFF" d="M331.562,229.741c-10.037,0-18.203-8.167-18.203-18.204s8.167-18.204,18.203-18.204
		c10.037,0,18.204,8.167,18.204,18.204S341.601,229.741,331.562,229.741z M331.562,200.615c-6.021,0-10.922,4.899-10.922,10.922
		s4.899,10.922,10.922,10.922c6.023,0,10.923-4.899,10.923-10.922S337.585,200.615,331.562,200.615z"/>
	<g>
		<g>
			<g>
				<g>
					<g>
						<path fill="#D3E6ED" d="M331.563,220.958c-5.195,0-9.421-4.227-9.421-9.423c0-5.194,4.226-9.42,9.421-9.42
							c5.194,0,9.42,4.226,9.42,9.42C340.984,216.731,336.758,220.958,331.563,220.958z"/>
						<path fill="#83AFBA" d="M331.563,203.615c4.367,0,7.92,3.553,7.92,7.92c0,4.369-3.553,7.923-7.92,7.923
							c-4.368,0-7.921-3.554-7.921-7.923C323.643,207.168,327.196,203.615,331.563,203.615 M331.563,200.615
							c-6.022,0-10.921,4.899-10.921,10.92c0,6.022,4.898,10.923,10.921,10.923c6.022,0,10.92-4.9,10.92-10.923
							C342.484,205.515,337.585,200.615,331.563,200.615L331.563,200.615z"/>
					</g>
				</g>
			</g>
		</g>
	</g>
</g>
<g>
	<path fill="#FFFFFF" d="M331.562,346.25c-10.037,0-18.203-8.166-18.203-18.204c0-10.037,8.167-18.203,18.203-18.203
		c10.037,0,18.204,8.166,18.204,18.203C349.767,338.084,341.601,346.25,331.562,346.25z M331.562,317.124
		c-6.021,0-10.922,4.899-10.922,10.922s4.899,10.923,10.922,10.923c6.023,0,10.923-4.9,10.923-10.923
		S337.585,317.124,331.562,317.124z"/>
	<g>
		<g>
			<g>
				<g>
					<g>
						<path fill="#D3E6ED" d="M331.5,337.468c-5.195,0-9.421-4.228-9.421-9.424c0-5.194,4.226-9.42,9.421-9.42
							c5.194,0,9.42,4.226,9.42,9.42C340.921,333.24,336.695,337.468,331.5,337.468z"/>
						<path fill="#83AFBA" d="M331.5,320.124c4.367,0,7.92,3.553,7.92,7.92c0,4.369-3.553,7.924-7.92,7.924
							c-4.368,0-7.921-3.555-7.921-7.924C323.58,323.677,327.133,320.124,331.5,320.124 M331.5,317.124
							c-6.022,0-10.921,4.899-10.921,10.92c0,6.023,4.898,10.924,10.921,10.924c6.022,0,10.92-4.9,10.92-10.924
							C342.421,322.023,337.522,317.124,331.5,317.124L331.5,317.124z"/>
					</g>
				</g>
			</g>
		</g>
	</g>
</g>
</svg>
