<?xml version="1.0" encoding="utf-8"?>
<!-- Generator: Adobe Illustrator 16.0.4, SVG Export Plug-In . SVG Version: 6.00 Build 0)  -->
<!DOCTYPE svg PUBLIC "-//W3C//DTD SVG 1.1//EN" "http://www.w3.org/Graphics/SVG/1.1/DTD/svg11.dtd">
<svg version="1.1" id="Layer_1" xmlns="http://www.w3.org/2000/svg" xmlns:xlink="http://www.w3.org/1999/xlink" x="0px" y="0px"
	 width="800px" height="500px" viewBox="0 0 800 500" enable-background="new 0 0 800 500" xml:space="preserve">
<circle fill="#D3E6ED" stroke="#83AFBA" stroke-width="3" stroke-miterlimit="10" cx="217.708" cy="177.828" r="26.634"/>
<path fill="#D3E6ED" stroke="#83AFBA" stroke-width="3" stroke-miterlimit="10" d="M619,191.863c0,6.703-5.434,12.137-12.137,12.137
	H281.137c-6.703,0-12.137-5.434-12.137-12.137v-28.728c0-6.703,5.434-12.137,12.137-12.137h325.728
	c6.703,0,12.137,5.434,12.137,12.137L619,191.863L619,191.863z"/>
<polyline fill="none" stroke="#83AFBA" stroke-width="4.8545" stroke-linejoin="bevel" stroke-miterlimit="10" points="
	205.508,177.828 214.003,187.539 227.353,168.929 "/>
<circle fill="#D3E6ED" stroke="#83AFBA" stroke-width="3" stroke-miterlimit="10" cx="217.708" cy="260.355" r="26.634"/>
<path fill="#D3E6ED" stroke="#83AFBA" stroke-width="3" stroke-miterlimit="10" d="M619,274.863c0,6.703-5.434,12.137-12.137,12.137
	H281.137c-6.703,0-12.137-5.434-12.137-12.137v-28.729c0-6.703,5.434-12.137,12.137-12.137h325.728
	c6.703,0,12.137,5.434,12.137,12.137L619,274.863L619,274.863z"/>
<g>
	<g enable-background="new    ">
		<path fill="#83AFBA" d="M217.727,252.139c-2.148,0-3.682,1.283-3.654,4.352h-3.598c-0.083-4.352,2.622-7.363,7.28-7.363
			c4.797,0,6.806,2.705,6.806,5.746c0,2.678-1.227,4.072-2.929,5.494l-1.59,1.312c-0.781,0.642-1.032,0.893-1.032,1.868v1.256
			h-3.291v-1.785c0-1.785,0.39-2.204,1.869-3.459l1.506-1.255c1.116-0.921,1.785-1.758,1.785-3.235
			C220.878,253.339,219.707,252.139,217.727,252.139z M215.188,271.357v-3.905h4.324v3.905H215.188z"/>
	</g>
</g>
<circle fill="#D3E6ED" stroke="#83AFBA" stroke-width="3" stroke-miterlimit="10" cx="217.708" cy="342.882" r="26.634"/>
<path fill="#D3E6ED" stroke="#83AFBA" stroke-width="3" stroke-miterlimit="10" d="M619,356.863c0,6.703-5.434,12.137-12.137,12.137
	H281.137c-6.703,0-12.137-5.434-12.137-12.137v-28.729c0-6.703,5.434-12.137,12.137-12.137h325.728
	c6.703,0,12.137,5.434,12.137,12.137L619,356.863L619,356.863z"/>
<line fill="none" stroke="#83AFBA" stroke-width="4.8545" stroke-linejoin="bevel" stroke-miterlimit="10" x1="209.246" y1="334.42" x2="226.17" y2="351.344"/>
<line fill="none" stroke="#83AFBA" stroke-width="4.8545" stroke-linejoin="bevel" stroke-miterlimit="10" x1="209.246" y1="351.344" x2="226.17" y2="334.42"/>
</svg>
