<?xml version="1.0" encoding="utf-8"?>
<!-- Generator: Adobe Illustrator 16.0.4, SVG Export Plug-In . SVG Version: 6.00 Build 0)  -->
<!DOCTYPE svg PUBLIC "-//W3C//DTD SVG 1.1//EN" "http://www.w3.org/Graphics/SVG/1.1/DTD/svg11.dtd">
<svg version="1.1" id="Layer_1" xmlns="http://www.w3.org/2000/svg" xmlns:xlink="http://www.w3.org/1999/xlink" x="0px" y="0px"
	 width="1000px" height="400px" viewBox="0 0 1000 400" enable-background="new 0 0 1000 400" xml:space="preserve">
<rect x="294" y="193.499" fill="#F2E7B8" width="401" height="21"/>
<rect x="294" y="227.5" fill="#F2E7B8" width="424" height="22"/>
<rect x="294" y="263.5" fill="#F2E7B8" width="401" height="22"/>
<rect x="294" y="298.5" fill="#F2E7B8" width="205" height="22"/>
<rect x="413" y="263.5" fill="#B09E52" width="142" height="22"/>
<path fill="#D3E6ED" stroke="#9EBBC6" stroke-width="3" stroke-miterlimit="10" d="M606.245,89.5H372.34
	c-2.408,0-4.34,1.225-4.34,3.632v123.491c0,2.406,1.932,4.877,4.34,4.877h104.84l9.207,12.234l9.207-12.234h110.652
	c2.408,0,4.755-2.471,4.755-4.877V93.132C611,90.725,608.653,89.5,606.245,89.5z"/>
<rect x="390" y="109.5" fill="#9EBBC6" width="103" height="21"/>
<rect x="390" y="154.5" fill="#9EBBC6" width="192" height="16"/>
<rect x="390" y="182.5" fill="#9EBBC6" width="177" height="16"/>
</svg>
