<?xml version="1.0" encoding="utf-8"?>
<!-- Generator: Adobe Illustrator 16.0.4, SVG Export Plug-In . SVG Version: 6.00 Build 0)  -->
<!DOCTYPE svg PUBLIC "-//W3C//DTD SVG 1.1//EN" "http://www.w3.org/Graphics/SVG/1.1/DTD/svg11.dtd">
<svg version="1.1" id="Layer_1" xmlns="http://www.w3.org/2000/svg" xmlns:xlink="http://www.w3.org/1999/xlink" x="0px" y="0px"
	 width="1000px" height="400px" viewBox="0 0 1000 400" enable-background="new 0 0 1000 400" xml:space="preserve">
<circle fill="#D3E6ED" stroke="#83AFBA" stroke-width="4" stroke-linejoin="round" stroke-miterlimit="10" cx="479.483" cy="215.081" r="60.605"/>
<path fill="none" stroke="#83AFBA" stroke-width="4" stroke-linejoin="round" stroke-miterlimit="10" d="M428.902,181.718
	c-63.458,40.194-104.718,81.852-95.324,98.425c10.736,18.94,83.567-2.057,162.672-46.897
	c79.104-44.839,134.529-96.542,123.793-115.482c-9.896-17.46-72.564-0.981-144.271,36.829"/>
<path fill="none" stroke="#83AFBA" stroke-width="4" stroke-linejoin="round" stroke-miterlimit="10" d="M531.373,183.751
	c56.714,49.195,91.432,100.864,77.043,118.896c-15.729,19.716-82.445-7.352-149.012-60.457
	c-66.569-53.107-107.78-112.142-92.05-131.859c14.396-18.045,71.499,3.098,132.11,47.525"/>
<g>
	<path fill="#42C678" d="M367.954,133.163c-14.125,0-25.615-11.491-25.615-25.615s11.491-25.615,25.615-25.615
		c14.125,0,25.616,11.491,25.616,25.615S382.079,133.163,367.954,133.163z"/>
	<path fill="#FFFFFF" d="M367.954,83.933c13.042,0,23.616,10.572,23.616,23.615c0,13.042-10.574,23.615-23.616,23.615
		s-23.615-10.573-23.615-23.615C344.338,94.505,354.911,83.933,367.954,83.933 M367.954,79.933
		c-15.227,0-27.615,12.388-27.615,27.615s12.388,27.615,27.615,27.615c15.228,0,27.616-12.388,27.616-27.615
		S383.181,79.933,367.954,79.933L367.954,79.933z"/>
</g>
<path fill="none" stroke="#83AFBA" stroke-width="4" stroke-linejoin="round" stroke-miterlimit="10" d="M529.039,180.195
	c64.714,3.596,111.424,13.866,111.424,25.975c0,15.103-72.659,27.345-162.287,27.345c-89.628,0-162.287-12.242-162.287-27.345
	c0-12.277,48.023-22.666,114.145-26.122"/>
<g>
	<path fill="#B09E52" d="M640.462,230.479c-14.124,0-25.615-11.491-25.615-25.615c0-14.125,11.491-25.616,25.615-25.616
		c14.125,0,25.616,11.491,25.616,25.616C666.078,218.987,654.587,230.479,640.462,230.479z"/>
	<path fill="#FFFFFF" d="M640.462,181.248c13.043,0,23.616,10.572,23.616,23.616c0,13.042-10.573,23.615-23.616,23.615
		s-23.615-10.573-23.615-23.615C616.847,191.82,627.419,181.248,640.462,181.248 M640.462,177.248
		c-15.228,0-27.615,12.388-27.615,27.616s12.388,27.615,27.615,27.615s27.616-12.388,27.616-27.615S655.689,177.248,640.462,177.248
		L640.462,177.248z"/>
</g>
<g>
	<path fill="#DB8D61" d="M333.701,302.212c-14.125,0-25.616-11.491-25.616-25.615c0-14.125,11.491-25.616,25.616-25.616
		s25.616,11.491,25.616,25.616C359.317,290.721,347.826,302.212,333.701,302.212z"/>
	<path fill="#FFFFFF" d="M333.701,252.98c13.042,0,23.616,10.572,23.616,23.616c0,13.041-10.573,23.615-23.616,23.615
		s-23.616-10.574-23.616-23.615C310.085,263.553,320.659,252.98,333.701,252.98 M333.701,248.98
		c-15.228,0-27.616,12.389-27.616,27.616s12.388,27.615,27.616,27.615s27.616-12.388,27.616-27.615S348.929,248.98,333.701,248.98
		L333.701,248.98z"/>
</g>
<rect x="451.5" y="195.5" fill="#83AFBA" width="52.5" height="8.5"/>
<rect x="451.5" y="208.781" fill="#83AFBA" width="45" height="8.5"/>
</svg>
