<?xml version="1.0" encoding="utf-8"?>
<!-- Generator: Adobe Illustrator 16.0.4, SVG Export Plug-In . SVG Version: 6.00 Build 0)  -->
<!DOCTYPE svg PUBLIC "-//W3C//DTD SVG 1.1//EN" "http://www.w3.org/Graphics/SVG/1.1/DTD/svg11.dtd">
<svg version="1.1" id="Layer_1" xmlns="http://www.w3.org/2000/svg" xmlns:xlink="http://www.w3.org/1999/xlink" x="0px" y="0px"
	 width="1000px" height="400px" viewBox="0 0 1000 400" enable-background="new 0 0 1000 400" xml:space="preserve">
<g>
	<g>
		<polygon fill="#3777E3" points="268.73,297.699 291.921,257.113 392.54,257.113 369.348,297.699 		"/>
		<path fill="#3777E3" d="M389.956,258.613l-21.478,37.586h-97.163l21.478-37.586H389.956 M395.125,255.613H291.051l-24.906,43.586
			h104.074L395.125,255.613L395.125,255.613z"/>
	</g>
	<g>
		<polygon fill="#FFCF63" points="345.791,254.085 295.537,166.692 342.67,166.721 392.541,254.111 		"/>
		<path fill="#FFCF63" d="M298.13,168.194l43.669,0.026l48.158,84.39l-43.298-0.025L298.13,168.194 M292.943,165.191l51.98,90.393
			l50.202,0.029l-51.583-90.392L292.943,165.191L292.943,165.191z"/>
	</g>
	<g>
		<polygon fill="#11A861" points="242.588,255.66 292.945,168.194 316.39,208.793 266.194,296.004 		"/>
		<path fill="#11A861" d="M292.947,171.197l21.711,37.598l-48.475,84.221l-21.861-37.361L292.947,171.197 M292.943,165.191
			l-52.089,90.475l25.351,43.326l51.916-90.2L292.943,165.191L292.943,165.191z"/>
	</g>
</g>
<path fill="#D3E6ED" stroke="#9EBBC6" stroke-width="3" stroke-miterlimit="10" d="M762,297.773c0,2.367-1.487,4.727-3.538,4.727
	h-169.69c-2.051,0-3.771-2.359-3.771-4.727V162.074c0-2.367,1.721-3.574,3.771-3.574h169.69c2.051,0,3.538,1.207,3.538,3.574
	V297.773z"/>
<path fill="#9EBBC6" d="M585,171.5v-9.426c0-2.367,1.721-3.574,3.771-3.574h169.689c2.051,0,3.538,1.207,3.538,3.574v9.426"/>
<rect x="604" y="187.5" fill="#DB8D61" width="71" height="12"/>
<rect x="604" y="239.5" fill="#DB8D61" width="71" height="12"/>
<rect x="619" y="204.5" fill="#B09E52" width="36" height="13"/>
<rect x="664" y="204.5" fill="#83AFBA" width="55" height="13"/>
<rect x="619" y="222.5" fill="#B09E52" width="26" height="13"/>
<path fill="#DB8D61" d="M483.415,400.556c0-8.801,7.135-15.936,15.936-15.936c8.802,0,15.937,7.135,15.937,15.936"/>
<path fill="none" stroke="#D3E6ED" stroke-width="4" stroke-miterlimit="10" d="M471.255,400.556
	c0-15.518,12.578-28.096,28.095-28.096c15.519,0,28.097,12.578,28.097,28.096"/>
<rect x="619" y="255.5" fill="#B09E52" width="36" height="13"/>
<rect x="619" y="274.5" fill="#B09E52" width="26" height="13"/>
<rect x="664" y="222.5" fill="#83AFBA" width="70" height="13"/>
<g>
	<rect x="664" y="255.5" fill="#83AFBA" width="55" height="13"/>
	<rect x="664" y="274.5" fill="#83AFBA" width="70" height="13"/>
</g>
</svg>
