<?xml version="1.0" encoding="utf-8"?>
<!-- Generator: Adobe Illustrator 16.0.4, SVG Export Plug-In . SVG Version: 6.00 Build 0)  -->
<!DOCTYPE svg PUBLIC "-//W3C//DTD SVG 1.1//EN" "http://www.w3.org/Graphics/SVG/1.1/DTD/svg11.dtd">
<svg version="1.1" id="Layer_1" xmlns="http://www.w3.org/2000/svg" xmlns:xlink="http://www.w3.org/1999/xlink" x="0px" y="0px"
	 width="1000px" height="400px" viewBox="0 0 1000 400" enable-background="new 0 0 1000 400" xml:space="preserve">
<path fill="#42C678" d="M125.341,235.799c-19.745,0-35.75-16.006-35.75-35.749s16.005-35.75,35.75-35.75"/>
<path fill="#42C678" d="M174.499,235.799c-19.745,0-35.75-16.006-35.75-35.749s16.004-35.75,35.75-35.75"/>
<path fill="#42C678" d="M874.623,164.3c19.745,0,35.75,16.007,35.75,35.75s-16.005,35.749-35.75,35.749"/>
<path fill="#42C678" d="M825.466,164.3c19.744,0,35.749,16.007,35.749,35.75s-16.005,35.749-35.749,35.749"/>
<path fill="#DB8D61" d="M308,226.228c0,1.976-1.753,3.272-3.727,3.272h-80.739c-1.974,0-3.534-1.297-3.534-3.272v-49.455
	c0-1.976,1.56-3.272,3.534-3.272h80.739c1.974,0,3.727,1.297,3.727,3.272V226.228z"/>
<path fill="#83AFBA" d="M472,226.228c0,1.976-1.894,3.272-3.868,3.272h-80.739c-1.974,0-3.393-1.297-3.393-3.272v-49.455
	c0-1.976,1.418-3.272,3.393-3.272h80.739c1.974,0,3.868,1.297,3.868,3.272V226.228z"/>
<line fill="none" stroke="#42C678" stroke-width="6" stroke-linecap="round" stroke-miterlimit="10" x1="345" y1="165.5" x2="345" y2="237.5"/>
<path fill="#DB8D61" d="M621,226.925c0,1.975-1.601,3.575-3.574,3.575h-80.852c-1.974,0-3.574-1.601-3.574-3.575v-49.85
	c0-1.975,1.601-3.575,3.574-3.575h80.852c1.974,0,3.574,1.601,3.574,3.575V226.925z"/>
<path fill="#83AFBA" d="M785,226.228c0,1.976-2.073,3.272-4.047,3.272h-80.739c-1.975,0-3.214-1.297-3.214-3.272v-49.455
	c0-1.976,1.239-3.272,3.214-3.272h80.739c1.974,0,4.047,1.297,4.047,3.272V226.228z"/>
<line fill="none" stroke="#42C678" stroke-width="6" stroke-linecap="round" stroke-miterlimit="10" x1="658" y1="165.5" x2="658" y2="237.5"/>
<line fill="none" stroke="#42C678" stroke-width="6" stroke-linecap="round" stroke-miterlimit="10" x1="501" y1="141.5" x2="501" y2="261.5"/>
</svg>
