<?xml version="1.0" encoding="utf-8"?>
<!-- Generator: Adobe Illustrator 16.0.4, SVG Export Plug-In . SVG Version: 6.00 Build 0)  -->
<!DOCTYPE svg PUBLIC "-//W3C//DTD SVG 1.1//EN" "http://www.w3.org/Graphics/SVG/1.1/DTD/svg11.dtd">
<svg version="1.1" id="Layer_1" xmlns="http://www.w3.org/2000/svg" xmlns:xlink="http://www.w3.org/1999/xlink" x="0px" y="0px"
	 width="1000px" height="400px" viewBox="0 0 1000 400" enable-background="new 0 0 1000 400" xml:space="preserve">
<circle fill="#DB8D61" cx="501.371" cy="179.946" r="16.14"/>
<circle fill="none" stroke="#D3E6ED" stroke-width="4" stroke-miterlimit="10" cx="501.372" cy="179.946" r="28.457"/>
<line fill="none" stroke="#D3E6ED" stroke-width="4" stroke-miterlimit="10" x1="501" y1="207.5" x2="501" y2="400.5"/>
<g>
	<rect x="581" y="240.5" fill="#D3E6ED" width="129" height="50"/>
	<g>
		<path fill="#83AFBA" d="M596.975,253.287h15.567v2.643h-12.605v8.117h11.587v2.577h-11.587v8.373h12.766v2.643h-15.728V253.287z"
			/>
		<path fill="#83AFBA" d="M615.627,260.862h2.929l3.629,10.792c0.478,1.369,0.827,2.643,0.827,2.643h0.064
			c0,0,0.35-1.273,0.827-2.643l3.726-10.792h2.736l-5.825,16.777h-3.023L615.627,260.862z"/>
		<path fill="#83AFBA" d="M640.041,278.054c-5.124,0-7.576-3.725-7.576-8.723c0-4.967,2.675-8.882,7.481-8.882
			c5.03,0,7.004,3.884,7.004,8.118v1.464h-11.556c0.19,3.47,1.59,5.825,4.742,5.825c2.802,0,3.533-1.623,3.82-2.609h2.77
			C646.122,276.144,643.638,278.054,640.041,278.054z M644.021,267.58c-0.064-2.802-1.179-4.967-4.108-4.967
			c-2.673,0-4.138,2.102-4.488,5.158h8.597V267.58z"/>
		<path fill="#83AFBA" d="M661.972,267.293c0-1.209,0-2.546-0.605-3.342c-0.573-0.796-1.528-1.114-2.642-1.114
			c-3.12,0-4.553,2.005-4.553,4.743v10.06h-2.865v-16.777h2.707v2.833h0.062c0.795-1.718,2.738-3.246,5.411-3.246
			c3.217,0,5.35,1.528,5.35,5.507v11.684h-2.865V267.293z"/>
		<path fill="#83AFBA" d="M674.193,255.992v4.87h4.138v2.197h-4.138v9.9c0,1.783,0.731,2.482,2.545,2.482
			c0.861,0,1.848-0.158,1.848-0.158v2.419c0,0-1.178,0.19-2.643,0.19c-3.279,0-4.583-1.591-4.583-4.456V263.06h-3.057v-2.101h0.509
			c2.261,0,2.77-0.541,2.77-3.757v-1.21H674.193z"/>
		<path fill="#83AFBA" d="M690.648,265.064c-0.159-1.495-1.369-2.451-3.343-2.451s-3.278,1.146-3.278,2.706
			c0,1.369,0.827,2.006,2.516,2.293l2.578,0.382c3.501,0.541,4.774,1.974,4.774,4.869c0,3.376-2.737,5.19-6.558,5.19
			c-3.47,0-6.335-1.56-6.559-5.157h2.803c0.126,1.306,0.857,2.96,3.82,2.96c2.291,0,3.724-1.082,3.724-2.833
			c0-1.336-0.351-2.069-2.643-2.451l-2.578-0.382c-2.992-0.478-4.585-1.719-4.585-4.647c0-2.961,2.262-5.094,6.082-5.094
			c3.628,0,5.697,1.687,5.984,4.615H690.648z"/>
	</g>
	<polyline fill="#D3E6ED" points="581,321.5 581,290.5 611,290.5 	"/>
	<rect x="245" y="240.5" fill="#D3E6ED" width="176" height="50"/>
	<g>
		<path fill="#83AFBA" d="M272.486,267.325h-5.411v10.314h-2.961v-24.353h8.818c1.783,0,3.375,0.382,4.712,1.082
			c1.941,1.083,3.152,2.961,3.152,5.762c0,4.584-2.993,6.144-5.222,6.717v0.064l5.38,10.728h-3.438L272.486,267.325z
			 M272.677,264.874c2.865,0,4.999-1.369,4.999-4.712c0-2.992-2.07-4.456-4.872-4.456h-5.729v9.168H272.677z"/>
		<path fill="#83AFBA" d="M291.582,278.054c-5.124,0-7.575-3.725-7.575-8.723c0-4.967,2.674-8.882,7.481-8.882
			c5.03,0,7.003,3.884,7.003,8.118v1.464h-11.556c0.19,3.47,1.591,5.825,4.743,5.825c2.801,0,3.534-1.623,3.82-2.609h2.769
			C297.664,276.144,295.18,278.054,291.582,278.054z M295.562,267.58c-0.063-2.802-1.179-4.967-4.107-4.967
			c-2.673,0-4.138,2.102-4.488,5.158h8.596V267.58z"/>
		<path fill="#83AFBA" d="M302.371,265.448c0.063-2.962,2.324-4.999,6.335-4.999c4.171,0,6.208,1.751,6.208,6.239v6.844
			c0,1.338,0.286,1.88,1.527,1.91v2.324h-0.351c-2.673,0-3.564-0.955-3.852-2.96h-0.063c-0.892,1.974-2.897,3.12-5.381,3.12
			c-3.343,0-5.316-1.816-5.316-4.808c0-1.846,0.797-3.375,2.515-4.234c1.752-0.924,4.362-1.241,8.119-1.369v-0.731
			c0-3.024-1.146-4.202-3.502-4.202c-2.482,0-3.405,1.433-3.501,2.866H302.371z M312.113,270.031v-0.381
			c-3.629,0.158-5.698,0.444-6.78,1.24c-0.637,0.478-0.924,1.178-0.924,2.069c0,1.72,1.115,2.643,2.929,2.643
			C309.471,275.603,312.113,274.169,312.113,270.031z"/>
		<path fill="#83AFBA" d="M330.637,265.924c-0.192-1.718-1.402-3.278-3.82-3.278c-3.025,0-4.616,2.643-4.616,6.558
			c0,3.884,1.178,6.59,4.552,6.59c3.184,0,4.011-2.355,4.106-3.628h2.674c-0.414,3.883-3.183,5.856-6.812,5.856
			c-4.838,0-7.449-3.375-7.449-8.69c0-5.125,2.802-8.882,7.512-8.882c3.343,0,6.368,1.528,6.653,5.475H330.637z"/>
		<path fill="#83AFBA" d="M341.362,255.992v4.87h4.138v2.197h-4.138v9.9c0,1.783,0.731,2.482,2.546,2.482
			c0.86,0,1.847-0.158,1.847-0.158v2.419c0,0-1.177,0.19-2.643,0.19c-3.279,0-4.583-1.591-4.583-4.456V263.06h-3.056v-2.101h0.509
			c2.261,0,2.769-0.541,2.769-3.757v-1.21H341.362z"/>
		<path fill="#83AFBA" d="M349.638,253.955h3.023v3.087h-3.023V253.955z M349.701,260.862h2.897v16.777h-2.897V260.862z"/>
		<path fill="#83AFBA" d="M357.084,269.235c0-5.188,2.865-8.786,7.545-8.786c4.997,0,7.481,3.598,7.481,8.786
			c0,5.252-2.834,8.818-7.544,8.818C359.631,278.054,357.084,274.487,357.084,269.235z M360.044,269.235
			c0,4.106,1.369,6.591,4.616,6.591c3.12,0,4.488-2.484,4.488-6.591c0-4.074-1.336-6.59-4.552-6.59
			C361.541,262.646,360.044,265.161,360.044,269.235z"/>
		<path fill="#83AFBA" d="M387.292,267.293c0-1.209,0-2.546-0.604-3.342c-0.574-0.796-1.529-1.114-2.642-1.114
			c-3.12,0-4.552,2.005-4.552,4.743v10.06h-2.866v-16.777h2.706v2.833h0.063c0.796-1.718,2.738-3.246,5.411-3.246
			c3.216,0,5.35,1.528,5.35,5.507v11.684h-2.866V267.293z"/>
		<path fill="#83AFBA" d="M404.256,265.064c-0.159-1.495-1.369-2.451-3.343-2.451c-1.974,0-3.278,1.146-3.278,2.706
			c0,1.369,0.827,2.006,2.515,2.293l2.578,0.382c3.501,0.541,4.774,1.974,4.774,4.869c0,3.376-2.736,5.19-6.557,5.19
			c-3.47,0-6.335-1.56-6.559-5.157h2.802c0.127,1.306,0.859,2.96,3.82,2.96c2.292,0,3.724-1.082,3.724-2.833
			c0-1.336-0.35-2.069-2.642-2.451l-2.579-0.382c-2.992-0.478-4.584-1.719-4.584-4.647c0-2.961,2.26-5.094,6.081-5.094
			c3.628,0,5.698,1.687,5.985,4.615H404.256z"/>
	</g>
	<polyline fill="#D3E6ED" points="390,290.5 421,290.5 421,321.5 	"/>
</g>
<line fill="#FFFFFF" stroke="#42C678" stroke-width="4" stroke-miterlimit="10" x1="580.944" y1="358.543" x2="580.944" y2="400.5"/>
<g>
	<path fill="#42C678" d="M580.944,375.734c-9.479,0-17.191-7.712-17.191-17.191c0-9.479,7.712-17.19,17.191-17.19
		s17.191,7.712,17.191,17.19C598.136,368.022,590.424,375.734,580.944,375.734z"/>
	<path fill="#FFFFFF" d="M580.944,343.353c8.39,0,15.191,6.801,15.191,15.19s-6.802,15.191-15.191,15.191
		s-15.191-6.802-15.191-15.191S572.555,343.353,580.944,343.353 M580.944,339.353c-10.582,0-19.191,8.608-19.191,19.19
		s8.609,19.191,19.191,19.191s19.191-8.609,19.191-19.191S591.526,339.353,580.944,339.353L580.944,339.353z"/>
</g>
<path fill="#404E54" d="M405.161,400.5c0-8.39,6.801-15.191,15.191-15.191s15.191,6.802,15.191,15.191"/>
</svg>
